#!OML:ASF F:\VICON\USERDATA\INSTALL\rory3\rory3.ASF
:FULLY-SPECIFIED
:DEGREES
37
root 0.23913779221245332 17.949549045735743 15.667507401304448 -1.7208339877581929 -6.777397666254366 -2.0871671624004113
lfemur 0.770123293610224 0.7566028704520698 -15.609499837892402
ltibia 56.08910481723915
lfoot -3.430697204684932 -2.8889522134315904
ltoes -0.5659226103729922
rfemur -19.85075939239156 5.544286104264519 25.9297522859833
rtibia 23.697437436693484
rfoot -11.405227725531827 -8.070727972709724
rtoes -2.345176784474769
lowerback 9.94775315504207 -0.9143978714722749 -0.029253444965873676
upperback 0.3522393618953688 -0.9300806043526973 1.969038201922965
thorax -5.351629154313722 -0.47252432198452066 2.2948263494755308
lowerneck -16.590742937777417 -3.1177919890700205 -1.404066982276825
upperneck 20.785950814521666 -4.042008645613627 0.34248256778741715
head 9.26406507156676 -1.9722575057613818 -0.2266979083579496
lclavicle 6.563340694362134e-16 -1.0577713896986272e-16
lhumerus -30.259238388934975 5.721722879802322 81.3289686598666
lradius 19.186397159248802
lwrist 8.573581549223658
lhand -28.264332652832405 18.38881485143482
lfingers 7.12502
lthumb -1.524903654673726 48.56537283393716
rclavicle 6.563340694410338e-16 -1.0577713896517424e-16
rhumerus -26.161317715107163 -18.060808407742126 -75.54019792681008
rradius 31.75575996558736
rwrist 5.040859706127132
rhand -17.666957069004514 22.18659243045292
rfingers 7.12502
rthumb 8.68207441079613 -7.695961763916788
38
root 0.22150043072384504 17.947159964636786 16.134727981983634 -1.812104534487157 -7.101520152745858 -2.7250774975829404
lfemur -0.958934211477052 1.5839245517012193 -14.11454277081572
ltibia 57.474700521163214
lfoot -4.093442110510218 -3.112914895411322
ltoes -1.9137491509422513
rfemur -18.965547040097178 5.995313070553669 26.883665331411184
rtibia 21.06013460523751
rfoot -7.90945012783582 -6.721680977681518
rtoes 0.6735222573296271
lowerback 10.03002455989483 -0.7025270275095286 0.5234922391966119
upperback 0.30141322353784517 -0.6038216517500247 2.086426097588742
thorax -5.446237323981686 -0.3049528888441384 2.087841464459439
lowerneck -16.522789303111047 -3.125548670045087 -1.3650118230443269
upperneck 20.814461665583583 -4.050307797383762 0.33516376033997713
head 9.294157654420454 -1.9743863152803873 -0.25835498531271806
lclavicle 6.563340694395976e-16 -1.0577713896714354e-16
lhumerus -31.122745847954288 6.865485253191757 81.57743659264554
lradius 19.3163404217706
lwrist 8.030999760015591
lhand -28.391278352499146 18.48014722962346
lfingers 7.12502
lthumb -1.6483505927088433 48.63136294941692
rclavicle 6.563340694386779e-16 -1.0577713896740126e-16
rhumerus -25.534188415165417 -16.722027307111244 -75.48414330155028
rradius 32.58264961471485
rwrist 4.396327919223872
rhand -17.652703312345345 22.19912233236558
rfingers 7.12502
rthumb 8.735183116251973 -7.589464042364484
39
root 0.21458999468586015 17.940392494575743 16.818942505393927 -2.021018352719445 -7.214602618601267 -3.0247554135373975
lfemur -2.6017374812807708 2.212544475703922 -13.224429864845124
ltibia 58.42302679567244
lfoot -4.723314153074645 -3.174606863473417
ltoes -2.3447419587527247
rfemur -18.043385015222498 6.29006615067699 27.527901565017206
rtibia 18.921217596693104
rfoot -4.967475271971198 -5.947900526621659
rtoes 3.7497433931144775
lowerback 10.150426401566886 -0.488489217204636 0.9699403309487404
upperback 0.24828681491307847 -0.2933893375026605 2.1599914853815028
thorax -5.480614729768957 -0.14435092079848688 1.911804475232068
lowerneck -16.51709351413352 -3.139582489875214 -1.334124677422698
upperneck 20.88354615975134 -4.071497050292884 0.37164935029935753
head 9.37568996965653 -1.9761961642904025 -0.27689029464537857
lclavicle 6.563340694372787e-16 -1.0577713896936166e-16
lhumerus -31.994684743791318 7.733380377566702 81.8058463179076
lradius 19.60144987608302
lwrist 7.750873926897736
lhand -28.608233595716694 18.563572318202155
lfingers 7.12502
lthumb -1.8779043348512867 48.759707564206806
rclavicle 6.563340694311107e-16 -1.057771389742541e-16
rhumerus -25.08722473902282 -15.76727010932289 -75.38364582929293
rradius 33.13041854646479
rwrist 4.145049783936555
rhand -17.625988955734837 22.15403700726497
rfingers 7.12502
rthumb 8.66361330055329 -7.749035307154889
40
root 0.20362261374441382 17.921499471142432 17.135581944116616 -2.417133001294392 -7.296178730841239 -3.259083580543771
lfemur -3.867461191168359 2.6614948686540707 -12.575390047727874
ltibia 58.8221582554931
lfoot -5.606843248211367 -3.2976869621048834
ltoes -3.4325757683570113
rfemur -17.06783729028222 6.523854927132529 28.06052813841382
rtibia 17.335376718473924
rfoot -2.0644592968951345 -5.712173242392781
rtoes 5.970574166269776
lowerback 10.307379634699359 -0.236323368829213 1.4149586177734892
upperback 0.2426176469647574 0.12386192018774245 2.1908795960212712
thorax -5.502110722395973 0.056518223038845294 1.6526902775289478
lowerneck -16.473751443829297 -3.150560492625097 -1.3393229260731783
upperneck 20.934565012952323 -4.095768330574259 0.46580810236621834
head 9.395321917654428 -1.9861162793229046 -0.24500888151160807
lclavicle 6.563340694295345e-16 -1.0577713897647209e-16
lhumerus -32.7634350512648 8.167430809673178 82.03375829161979
lradius 20.03827145817332
lwrist 7.912112691203198
lhand -28.911064738715496 18.840281840045307
lfingers 7.12502
lthumb -2.2198563477874322 48.979707785354876
rclavicle 6.5633406942865715e-16 -1.0577713897661263e-16
rhumerus -24.799608993285613 -14.991308239878913 -75.44007152856648
rradius 33.259330820777194
rwrist 4.292418583043731
rhand -17.67609488460088 21.987420249387704
rfingers 7.12502
rthumb 8.649119925228154 -7.781230452522899
41
root 0.19503682021520033 17.898773648012234 17.50226871241388 -2.7521897002849194 -7.276567810294139 -3.8242777409546265
lfemur -5.603792532116323 2.9561420112141787 -11.897016347556663
ltibia 59.14507033021217
lfoot -6.894830188647421 -3.7626813702845174
ltoes -4.987903760936148
rfemur -15.95674926388687 6.755732013664405 28.82657835516446
rtibia 16.172960057339257
rfoot 0.6460595235383728 -5.654889235678457
rtoes 7.480248842042718
lowerback 10.413340220393593 0.039456756405816584 2.0757239500202678
upperback 0.2481771156311604 0.6262495304065919 2.2521458081794385
thorax -5.5293679165141345 0.29477070832289487 1.2770067681337813
lowerneck -16.44239521862688 -3.1537509369142023 -1.3315334061863626
upperneck 21.071766769857412 -4.1230662099752715 0.5270750126152114
head 9.455606768880015 -1.9937765446466365 -0.2284731185361807
lclavicle 6.563340694321981e-16 -1.0577713897444452e-16
lhumerus -33.49092570724827 8.405049458712632 82.15482134724186
lradius 20.52624728085263
lwrist 8.372103752162982
lhand -29.021448365701335 19.256675898483795
lfingers 7.12502
lthumb -2.3572223039078075 49.447236775170374
rclavicle 6.563340694291108e-16 -1.0577713897655485e-16
rhumerus -24.551072663607428 -14.215651045406307 -75.60342812960744
rradius 33.387974202816274
rwrist 4.938804904609708
rhand -17.6120859597482 22.064803011989778
rfingers 7.12502
rthumb 8.738121093966875 -7.625132499053619
